<svg xmlns="http://www.w3.org/2000/svg" xmlns:xlink="http://www.w3.org/1999/xlink" width="265.157" height="68.369" viewBox="0 0 265.157 68.369">
  <defs>
    <clipPath id="clip-path">
      <rect id="사각형_561" data-name="사각형 561" width="69.667" height="68.369" fill="#fff"/>
    </clipPath>
  </defs>
  <g id="그룹_3515" data-name="그룹 3515" transform="translate(-10.784 2.837)">
    <g id="그룹_3504" data-name="그룹 3504" transform="translate(10.784 -2.837)">
      <g id="그룹_3503" data-name="그룹 3503" transform="translate(0 0)" clip-path="url(#clip-path)">
        <path id="패스_1683" data-name="패스 1683" d="M33.718,67.438A33.718,33.718,0,1,0,0,33.72,33.737,33.737,0,0,0,33.718,67.438M55.258,22.1S52.889,39.358,50.07,42.967a7.865,7.865,0,0,1-3.383,2.706,26.006,26.006,0,0,0,.564-3.159,14.326,14.326,0,0,0-1.127-6.539A24.919,24.919,0,0,0,49.392,30a36.1,36.1,0,0,0-4.059,4.4,21.729,21.729,0,0,0-1.8-2.592,13.782,13.782,0,0,0-2.6-2.143A129.479,129.479,0,0,1,55.258,22.1M41.837,33.155A12.779,12.779,0,1,1,22.779,50.184C18.156,45,12.18,19.059,12.18,19.059s25.035,8.91,29.657,14.1" transform="translate(0 -0.003)" fill="#fff"/>
      </g>
      <g id="그룹_3513" data-name="그룹 3513" transform="translate(23.093 30.768)">
        <g id="그룹_3513-2" data-name="그룹 3513" transform="translate(0 0)">
          <path id="패스_1684" data-name="패스 1684" d="M42.286,47.085c-1.015-4.4-10.489-14.321-15-16.8a62.956,62.956,0,0,0,15,16.8" transform="translate(-27.287 -30.283)" fill="#fff"/>
        </g>
      </g>
    </g>
    <g id="그룹_3510" data-name="그룹 3510" transform="translate(91.912 11.334)">
      <g id="그룹_3512" data-name="그룹 3512" transform="translate(0 0)">
        <path id="패스_1686" data-name="패스 1686" d="M95.625,12.006v8.638h13.8v4.586a2.4,2.4,0,0,1-.646,1.87,2.823,2.823,0,0,1-1.937.579H95.625v8.993h16.163v3.875a3.057,3.057,0,0,1-.8,2.293,3.191,3.191,0,0,1-2.315.779H89.7a3.189,3.189,0,0,1-2.315-.779,3.057,3.057,0,0,1-.8-2.293V5.06h25.2v4.5a2.4,2.4,0,0,1-.646,1.87,2.823,2.823,0,0,1-1.937.579Z" transform="translate(-86.586 -3.813)" fill="#fff"/>
        <path id="패스_1687" data-name="패스 1687" d="M130.774,36.748a8.779,8.779,0,0,1-2.36,2.983,9.43,9.43,0,0,1-3.273,1.692,12.955,12.955,0,0,1-3.651.534q-6.278,0-9.44-3.962-3.072-3.92-3.072-10.553,0-6.545,3.072-10.51,3.115-3.917,9.4-3.917a12.23,12.23,0,0,1,3.807.6,9.728,9.728,0,0,1,3.3,1.824,9.026,9.026,0,0,1,2.315,3.051,9.855,9.855,0,0,1,.868,4.275h-8.46a3.543,3.543,0,0,0-.69-2.516,2.134,2.134,0,0,0-1.536-.691q-1.293,0-2.2,1.916a14.607,14.607,0,0,0-.913,5.967,15.848,15.848,0,0,0,.868,6.21,2.681,2.681,0,0,0,2.427,1.848,1.927,1.927,0,0,0,1.4-.668,4,4,0,0,0,.735-2.538h8.327a9.892,9.892,0,0,1-.913,4.453" transform="translate(-81.282 -1.929)" fill="#fff"/>
        <path id="패스_1688" data-name="패스 1688" d="M152.352,27.443q0,7.481-2.828,11t-9.284,3.516q-6.145,0-9.128-3.539t-2.983-10.976q0-7.436,3.228-10.931t8.883-3.5q5.7,0,8.905,3.5t3.206,10.931m-8.95,0a14.229,14.229,0,0,0-.935-6.056q-.935-1.826-2.226-1.826-1.38,0-2.271,1.826a14.87,14.87,0,0,0-.891,6.056,16.207,16.207,0,0,0,.846,5.878q.846,2.093,2.315,2.092,1.558,0,2.36-2.092a17.034,17.034,0,0,0,.8-5.878" transform="translate(-76.746 -1.929)" fill="#fff"/>
        <path id="패스_1689" data-name="패스 1689" d="M163.078,27.9a11.047,11.047,0,0,0,.244-1.336,8.441,8.441,0,0,1,.245-1.291L169.042,5.06h9.309L167.44,41.483A3.169,3.169,0,0,1,166.35,43.2a3.075,3.075,0,0,1-1.936.6h-4.943L147.893,5.06h9.262l5.523,20.26a8.787,8.787,0,0,1,.244,1.269c.075.549.126.987.157,1.314" transform="translate(-72.064 -3.813)" fill="#fff"/>
        <path id="패스_1690" data-name="패스 1690" d="M182.617,9.885a2.175,2.175,0,0,1-.668,1.738,3.07,3.07,0,0,1-2.048.578h-6.412V4.052h9.128Zm-9.039,33.974v-28.1h8.994v24.98a2.763,2.763,0,0,1-1.069,2.249,3.83,3.83,0,0,1-2.494.868Z" transform="translate(-66.002 -4.052)" fill="#fff"/>
        <path id="패스_1691" data-name="패스 1691" d="M192.322,29.714a8.454,8.454,0,0,0,1,4.386,3.2,3.2,0,0,0,2.917,1.669,4.389,4.389,0,0,0,1.069-.132,2.548,2.548,0,0,0,.98-.49,3.075,3.075,0,0,0,.757-.913,3.723,3.723,0,0,0,.4-1.447h8.905a8.527,8.527,0,0,1-1.224,3.829,10.234,10.234,0,0,1-2.694,2.894,12.133,12.133,0,0,1-3.763,1.824,15.432,15.432,0,0,1-4.386.623,13.466,13.466,0,0,1-5.61-1.09,11.034,11.034,0,0,1-4.007-3.028,13.007,13.007,0,0,1-2.4-4.586,19.987,19.987,0,0,1-.8-5.811,19.362,19.362,0,0,1,.868-6.011,12.91,12.91,0,0,1,2.494-4.542,10.912,10.912,0,0,1,3.918-2.872,12.717,12.717,0,0,1,5.143-1,12.86,12.86,0,0,1,4.942.935,11.3,11.3,0,0,1,3.941,2.694,12.468,12.468,0,0,1,2.6,4.23,15.567,15.567,0,0,1,.935,5.544v3.3Zm7.124-5.076a8.556,8.556,0,0,0-.111-1.8,6.766,6.766,0,0,0-.557-1.8,3.846,3.846,0,0,0-1.114-1.4,2.8,2.8,0,0,0-1.78-.557,2.71,2.71,0,0,0-1.648.49,3.737,3.737,0,0,0-1.091,1.291,6.628,6.628,0,0,0-.623,1.8,10.092,10.092,0,0,0-.2,1.981Z" transform="translate(-63.64 -1.929)" fill="#fff"/>
        <path id="패스_1692" data-name="패스 1692" d="M215.81,27.347a4.907,4.907,0,0,0,.156-.935,7.653,7.653,0,0,1,.111-.846l3.562-12.334h7.123l3.607,12.379a3.655,3.655,0,0,1,.156.824q.068.6.111.868a4.006,4.006,0,0,0,.135-.868,7.707,7.707,0,0,1,.089-.824l2.715-12.379h9.352l-7.258,26.36a2.7,2.7,0,0,1-1.046,1.536,3.034,3.034,0,0,1-1.8.557H227.3l-3.785-12.957c-.031-.147-.074-.445-.134-.891a6.087,6.087,0,0,0-.178-.935,3.933,3.933,0,0,0-.156.891,5.127,5.127,0,0,1-.156.935L219.684,39.77a2.3,2.3,0,0,1-1.069,1.447,3.556,3.556,0,0,1-1.826.468h-5.434l-7.881-28.453h9.352l2.759,12.29a3.538,3.538,0,0,1,.135.891c.028.445.059.757.089.935" transform="translate(-58.899 -1.878)" fill="#fff"/>
      </g>
    </g>
  </g>
</svg>
